<svg width="672" height="705" viewBox="0 0 672 705" fill="none" xmlns="http://www.w3.org/2000/svg">
<g id="reply-man">
<g id="man">
<path id="Vector" d="M620.084 437.861V442.002C620.084 442.002 627.57 468.508 618.421 468.508C609.272 468.508 605.945 442.83 605.945 442.83V437.861H620.084Z" fill="#FFB8B8"/>
<path id="Vector_2" d="M453.739 343.433L455.403 336.807C455.403 336.807 464.551 316.099 472.037 320.241C479.522 324.382 468.71 340.12 468.71 340.12L467.047 344.262L453.739 343.433Z" fill="#FFB8B8"/>
<path id="Vector_3" d="M506.97 639.969L508.633 654.049L524.436 656.534V638.312L506.97 639.969Z" fill="#FFB8B8"/>
<path id="Vector_4" d="M594.301 635.827L595.964 656.534L614.262 654.049L610.935 634.17L594.301 635.827Z" fill="#FFB8B8"/>
<path id="Vector_5" d="M499.484 478.448L496.157 479.276L505.306 567.077V645.767L528.594 641.625L540.238 503.297L576.002 571.219L593.469 639.969L620.916 634.999L598.459 548.854L583.488 466.851L499.484 478.448Z" fill="#2F2E41"/>
<path id="Vector_6" d="M516.118 649.08C516.118 649.08 508.633 644.11 506.138 647.423C503.643 650.736 492.83 667.303 492.83 667.303C492.83 667.303 466.215 694.637 492.83 693.808C492.83 693.808 510.296 693.808 513.623 683.869C513.623 683.869 514.455 678.899 520.277 678.899C526.099 678.899 532.753 673.101 532.753 669.787C532.753 666.474 526.931 649.745 524.436 652.311C521.941 654.878 516.118 649.08 516.118 649.08Z" fill="#2F2E41"/>
<path id="Vector_7" d="M605.413 649.08C605.413 649.08 612.898 644.11 615.393 647.423C617.889 650.736 628.701 667.303 628.701 667.303C628.701 667.303 655.316 694.637 628.701 693.808C628.701 693.808 611.235 693.808 607.908 683.869C607.908 683.869 607.076 678.899 601.254 678.899C595.432 678.899 588.778 673.101 588.778 669.787C588.778 666.474 594.6 649.745 597.095 652.311C599.591 654.878 605.413 649.08 605.413 649.08Z" fill="#2F2E41"/>
<path id="Vector_8" d="M501.563 339.206C513.688 339.206 523.518 329.417 523.518 317.341C523.518 305.266 513.688 295.477 501.563 295.477C489.438 295.477 479.609 305.266 479.609 317.341C479.609 329.417 489.438 339.206 501.563 339.206Z" fill="#FFB8B8"/>
<path id="Vector_9" d="M499.9 334.736L511.544 348.817L532.337 331.422L517.366 319.827L499.9 334.736Z" fill="#FFB8B8"/>
<path id="Vector_10" d="M506.138 349.231L506.818 343.102L530.166 329.741L561.885 326.744C562.865 326.651 563.854 326.752 564.795 327.04C565.736 327.328 566.61 327.798 567.369 328.423C568.127 329.048 568.755 329.815 569.215 330.681C569.676 331.548 569.961 332.496 570.053 333.472L581.825 457.74L585.983 468.508C585.983 468.508 512.792 509.924 496.157 479.276L508.633 414.668L482.849 365.798L506.138 349.231Z" fill="#01A792" fill-opacity="0.99"/>
<path id="Vector_11" d="M562.695 328.524C563.203 328.44 563.7 328.298 564.177 328.103C565.702 327.556 567.363 327.515 568.914 327.985C570.464 328.455 571.821 329.412 572.781 330.712L610.103 381.535L624.243 440.345H604.281L590.974 400.587L569.349 372.424L562.695 328.524Z" fill="#01A792" fill-opacity="0.99"/>
<path id="Vector_12" d="M489.503 364.141L482.849 365.798L462.888 383.192L469.542 343.433L452.907 340.12L440.016 406.799L449.164 415.91L501.148 394.788L489.503 364.141Z" fill="#01A792" fill-opacity="0.99"/>
<path id="Vector_13" d="M510.306 317.27C510.306 317.27 501.288 304.081 496.126 308.424C490.965 312.766 476.494 321.284 473.445 314.542C470.396 307.8 482.114 295.447 490.958 292.494C499.802 289.541 515.332 285.617 520.203 298.638C523.135 306.9 524.113 315.724 523.061 324.423L510.306 317.27Z" fill="#2F2E41"/>
<path id="Vector_14" d="M511.217 319.806C512.456 319.358 512.803 317.194 511.993 314.974C511.182 312.753 509.521 311.317 508.282 311.765C507.044 312.214 506.697 314.377 507.507 316.598C508.318 318.818 509.979 320.254 511.217 319.806Z" fill="#FFB8B8"/>
</g>
<g id="phone" clip-path="url(#clip0)">
<g id="Group" opacity="0.1">
<path id="Vector_15" opacity="0.1" d="M473.71 325.325C473.71 325.325 471.475 323.147 471.327 320.69C471.271 319.659 470.882 318.68 470.22 317.901C469.902 317.533 469.552 317.195 469.172 316.892" stroke="#535461" stroke-width="2" stroke-miterlimit="10"/>
<path id="Vector_16" opacity="0.1" d="M469.073 315.341C469.251 315.662 469.183 316.929 469.183 316.929C469.183 316.929 468.079 316.331 467.9 316.01C467.85 315.933 467.817 315.847 467.802 315.756C467.787 315.665 467.791 315.572 467.813 315.482C467.836 315.392 467.876 315.308 467.932 315.234C467.989 315.16 468.059 315.098 468.14 315.052C468.221 315.006 468.309 314.977 468.401 314.966C468.493 314.956 468.585 314.965 468.673 314.992C468.76 315.019 468.841 315.064 468.91 315.124C468.978 315.184 469.034 315.258 469.073 315.341V315.341Z" fill="#BABABA"/>
<path id="Vector_17" opacity="0.1" d="M471.028 316.569C471.001 316.941 470.258 317.977 470.258 317.977C470.258 317.977 469.666 316.868 469.692 316.498C469.693 316.406 469.712 316.315 469.749 316.23C469.786 316.145 469.84 316.069 469.908 316.005C469.975 315.941 470.054 315.892 470.141 315.86C470.227 315.828 470.319 315.814 470.411 315.819C470.502 315.824 470.592 315.847 470.673 315.888C470.754 315.929 470.826 315.987 470.884 316.057C470.942 316.127 470.985 316.209 471.009 316.297C471.034 316.385 471.041 316.478 471.028 316.569V316.569Z" fill="#BABABA"/>
<path id="Vector_18" opacity="0.1" d="M472.677 319.636C472.468 319.946 471.31 320.474 471.31 320.474C471.31 320.474 471.363 319.208 471.572 318.897C471.619 318.817 471.682 318.747 471.756 318.692C471.83 318.637 471.915 318.597 472.005 318.576C472.094 318.554 472.187 318.551 472.277 318.567C472.367 318.583 472.453 318.618 472.528 318.668C472.604 318.719 472.669 318.784 472.717 318.861C472.766 318.938 472.799 319.025 472.813 319.116C472.827 319.206 472.822 319.299 472.799 319.388C472.776 319.478 472.734 319.562 472.678 319.635L472.677 319.636Z" fill="#BABABA"/>
<path id="Vector_19" opacity="0.1" d="M473.397 322.247C473.242 322.586 472.186 323.301 472.186 323.301C472.186 323.301 472.024 322.048 472.179 321.708C472.26 321.556 472.395 321.44 472.556 321.382C472.718 321.325 472.894 321.332 473.049 321.4C473.204 321.469 473.327 321.594 473.391 321.751C473.455 321.908 473.457 322.085 473.396 322.246L473.397 322.247Z" fill="#BABABA"/>
<path id="Vector_20" opacity="0.1" d="M469.063 318.742C469.42 318.832 470.631 318.448 470.631 318.448C470.631 318.448 469.774 317.533 469.416 317.441C469.249 317.41 469.075 317.443 468.93 317.535C468.784 317.627 468.678 317.77 468.633 317.936C468.588 318.102 468.608 318.277 468.687 318.427C468.767 318.577 468.901 318.689 469.063 318.742V318.742Z" fill="#BABABA"/>
<path id="Vector_21" opacity="0.1" d="M469.944 321.783C470.313 321.763 471.36 321.035 471.36 321.035C471.36 321.035 470.264 320.423 469.895 320.443C469.725 320.463 469.568 320.547 469.456 320.678C469.344 320.809 469.285 320.977 469.291 321.148C469.297 321.319 469.368 321.479 469.49 321.598C469.611 321.716 469.774 321.782 469.944 321.784L469.944 321.783Z" fill="#BABABA"/>
<path id="Vector_22" opacity="0.1" d="M471.207 324.614C471.574 324.656 472.725 324.114 472.725 324.114C472.725 324.114 471.751 323.324 471.385 323.281C471.216 323.274 471.049 323.331 470.918 323.441C470.788 323.552 470.703 323.706 470.68 323.875C470.657 324.044 470.699 324.213 470.797 324.35C470.894 324.487 471.041 324.581 471.206 324.613L471.207 324.614Z" fill="#BABABA"/>
</g>
<path id="Vector_23" d="M455.216 325.082L455.02 325.305L458.105 328.034L458.301 327.812L455.216 325.082Z" fill="#535461"/>
<path id="Vector_24" d="M459.361 328.749L459.164 328.971L460.909 330.515L461.106 330.293L459.361 328.749Z" fill="#535461"/>
<path id="Vector_25" d="M459.656 313.974L453.459 320.978C452.729 321.803 452.794 323.053 453.605 323.77L471.984 340.031C472.795 340.748 474.044 340.66 474.774 339.835L480.97 332.831C481.7 332.006 481.635 330.756 480.824 330.038L462.445 313.778C461.635 313.061 460.386 313.148 459.656 313.974Z" fill="#535461"/>
<path id="Vector_26" d="M460.653 314.856L454.456 321.86C453.726 322.685 453.792 323.935 454.602 324.652L471.08 339.231C471.891 339.948 473.14 339.861 473.87 339.036L480.067 332.032C480.797 331.206 480.731 329.956 479.921 329.239L463.443 314.66C462.632 313.943 461.383 314.031 460.653 314.856Z" fill="#BABABA"/>
<path id="Vector_27" d="M457.67 317.16L456.407 318.587C456.353 318.648 456.358 318.741 456.418 318.795C456.479 318.848 456.571 318.841 456.626 318.78L457.889 317.353C457.943 317.291 457.938 317.198 457.878 317.145C457.817 317.092 457.725 317.098 457.67 317.16Z" fill="#EAEAF3"/>
<path id="Vector_28" d="M458.554 316.726C458.632 316.638 458.625 316.505 458.539 316.429C458.453 316.353 458.32 316.362 458.243 316.45C458.165 316.538 458.172 316.67 458.258 316.746C458.344 316.823 458.477 316.813 458.554 316.726Z" fill="#EAEAF3"/>
</g>
</g>
<defs>
<clipPath id="clip0">
<rect width="46.4665" height="33.6141" fill="white" transform="translate(439 331.801) rotate(-48.5)"/>
</clipPath>
</defs>
</svg>
