<svg width="650" height="517" viewBox="0 0 650 517" fill="none" xmlns="http://www.w3.org/2000/svg">
<g id="standing-man" clip-path="url(#clip0)">
<g id="body">
<path id="Vector" d="M205.779 222.358C205.964 220.9 205.827 219.419 205.378 218.019C204.929 216.619 204.178 215.335 203.178 214.257C202.179 213.179 200.956 212.333 199.594 211.779C198.232 211.224 196.766 210.976 195.297 211.05L177.521 178.44L173.521 192.44L185.7 222.326C185.988 224.785 187.167 227.052 189.015 228.699C190.863 230.345 193.25 231.257 195.725 231.261C198.2 231.265 200.591 230.361 202.444 228.72C204.297 227.079 205.484 224.816 205.779 222.358V222.358Z" fill="#A0616A"/>
<path id="Vector_2" d="M68.816 351.113L78.717 358.342L111.312 323.589L96.698 312.92L68.816 351.113Z" fill="#A0616A"/>
<path id="Vector_3" d="M91.1011 381.478L59.9812 358.758L68.7591 346.735L87.8554 360.676C91.0443 363.004 93.1777 366.504 93.7864 370.405C94.3951 374.306 93.4292 378.289 91.1011 381.478V381.478L91.1011 381.478Z" fill="#2F2E41"/>
<path id="Vector_4" d="M121.201 389.377L133.461 389.376L139.293 342.088L121.199 342.089L121.201 389.377Z" fill="#A0616A"/>
<path id="Vector_5" d="M157.105 400.759L118.575 400.761L118.574 385.874L142.218 385.873C146.166 385.873 149.953 387.441 152.745 390.233C155.537 393.025 157.105 396.811 157.105 400.759V400.759V400.759Z" fill="#2F2E41"/>
<path id="Vector_6" d="M158.021 204.941C158.021 204.941 164.021 262.941 149.021 302.941L138.021 378.941H119.021L121.021 288.941L114.021 208.941C114.021 208.941 128.021 172.941 158.021 204.941Z" fill="#2F2E41"/>
<path id="Vector_7" d="M93.021 208.94L113.021 277.94L74.021 339.94L93.521 356.44L138.021 286.94L125.021 201.94L93.021 208.94Z" fill="#2F2E41"/>
<path id="Vector_8" d="M123.521 63.4405C123.521 63.4405 138.521 53.4405 155.521 75.4405L160.021 213.94C160.021 213.94 147.021 195.94 120.021 212.94C93.0209 229.94 87.0209 210.94 87.0209 210.94C87.0209 210.94 68.0209 67.9405 123.521 63.4405Z" fill="#01A792"/>
<path id="Vector_9" d="M154.311 75.0913C158.625 75.3245 162.701 77.1448 165.753 80.2019C168.806 83.2591 170.621 87.3372 170.848 91.6516L174.021 151.94L195.021 208.941L183.021 218.941L144.021 150.94L136.036 95.0474C135.67 92.4856 135.877 89.8745 136.641 87.402C137.405 84.9296 138.708 82.6574 140.456 80.7489C142.203 78.8405 144.352 77.3432 146.748 76.3649C149.144 75.3866 151.727 74.9516 154.311 75.0913V75.0913Z" fill="#01A792"/>
</g>
<g id="head">
<path id="Vector_10" d="M144.025 54.2141C157.59 54.2141 168.586 43.2178 168.586 29.6531C168.586 16.0884 157.59 5.09207 144.025 5.09207C130.46 5.09207 119.464 16.0884 119.464 29.6531C119.464 43.2178 130.46 54.2141 144.025 54.2141Z" fill="#A0616A"/>
<path id="Vector_11" d="M125.978 48.0764C129.993 52.3535 137.45 50.0574 137.973 44.2143C138.014 43.7606 138.011 43.3041 137.964 42.851C137.694 40.2627 136.199 37.9129 136.557 35.18C136.638 34.4999 136.891 33.8517 137.293 33.2969C140.493 29.0123 148.004 35.2133 151.023 31.3346C152.875 28.9562 150.699 25.2116 152.12 22.5534C153.995 19.045 159.55 20.7757 163.033 18.8544C166.909 16.7166 166.677 10.7701 164.126 7.15316C161.014 2.74216 155.559 0.38841 150.172 0.0491599C144.784 -0.29009 139.434 1.16625 134.405 3.12631C128.69 5.35331 123.023 8.43112 119.507 13.4559C115.23 19.5666 114.819 27.7819 116.957 34.9272C118.259 39.2738 122.699 44.5836 125.978 48.0764Z" fill="#2F2E41"/>
</g>
</g>
<defs>
<clipPath id="clip0">
<rect width="649.675" height="516.232" fill="white"/>
</clipPath>
</defs>
</svg>
