<svg width="646" height="756" viewBox="0 0 646 756" fill="none" xmlns="http://www.w3.org/2000/svg">
<rect width="646" height="756" fill="white"/>
<g id="web-developer" clip-path="url(#clip0)">
<g id="computer">
<path id="Vector" d="M544.721 557.684L553.272 592.956C553.367 593.349 553.352 593.761 553.229 594.146L514.442 715.357C514.288 715.837 513.974 716.25 513.553 716.527C513.132 716.804 512.629 716.928 512.127 716.878C511.626 716.829 511.156 716.609 510.797 716.255C510.438 715.901 510.211 715.435 510.154 714.935L504.788 667.715C504.753 667.402 504.785 667.084 504.883 666.784L540.486 557.521C540.634 557.065 540.927 556.67 541.321 556.396C541.714 556.122 542.186 555.983 542.665 556.002C543.144 556.02 543.604 556.194 543.975 556.498C544.346 556.802 544.608 557.218 544.721 557.684Z" fill="#2F2E41"/>
<path id="Vector_2" d="M541.576 560.663L549.47 590.926L515.26 701.45L507.366 667.24L541.576 560.663Z" fill="#F2F2F2"/>
<path id="Vector_3" d="M369.211 725.133C370.526 729.08 506.05 723.817 507.366 722.502C508.513 720.854 509.483 719.09 510.261 717.239C511.498 714.607 512.629 711.976 512.629 711.976L507.366 669.371L373.158 664.608C373.158 664.608 369.803 700.713 369.118 717.239C368.948 721.41 368.948 724.344 369.211 725.133Z" fill="#2F2E41"/>
<path id="Vector_4" opacity="0.1" d="M490.261 675.135L492.892 711.976H433.683V675.135H490.261Z" fill="black"/>
<path id="Vector_5" opacity="0.1" d="M369.211 725.133C370.526 729.08 506.05 723.817 507.366 722.502C508.513 720.854 509.483 719.09 510.261 717.239H369.118C368.948 721.41 368.948 724.344 369.211 725.133Z" fill="black"/>
</g>
<g id="man">
<path id="Vector_6" d="M144.734 601.808H181.575L272.363 566.283C272.363 566.283 336.836 539.967 331.573 589.966C326.31 639.965 317.099 707.069 317.099 707.069C317.099 707.069 288.152 693.912 272.363 697.859C256.574 701.806 267.1 617.597 267.1 617.597C267.1 617.597 138.155 679.438 126.313 671.544C114.471 663.649 111.84 608.387 111.84 608.387L144.734 601.808Z" fill="#2F2E41"/>
<path id="Vector_7" opacity="0.1" d="M144.734 601.808H181.575L272.363 566.283C272.363 566.283 336.836 539.967 331.573 589.966C326.31 639.965 317.099 707.069 317.099 707.069C317.099 707.069 288.152 693.912 272.363 697.859C256.574 701.806 267.1 617.597 267.1 617.597C267.1 617.597 138.155 679.438 126.313 671.544C114.471 663.649 111.84 608.387 111.84 608.387L144.734 601.808Z" fill="black"/>
<path id="Vector_8" d="M202.778 486.434L247.364 550.494L351.309 637.334C351.309 637.334 447.36 659.702 434.202 675.491C421.045 691.28 340.783 659.702 340.783 659.702C340.783 659.702 221.048 572.861 217.101 566.283C213.154 559.704 169.734 497.863 169.734 497.863L202.778 486.434Z" fill="#A0616A"/>
<path id="Vector_9" opacity="0.1" d="M202.778 486.434L247.364 550.494L351.309 637.334C351.309 637.334 447.36 659.702 434.202 675.491C421.045 691.28 340.783 659.702 340.783 659.702C340.783 659.702 221.048 572.861 217.101 566.283C213.154 559.704 169.734 497.863 169.734 497.863L202.778 486.434Z" fill="black"/>
<path id="Vector_10" d="M176.312 434.706L205.259 491.284C205.259 491.284 198.68 518.915 188.154 521.547C177.628 524.178 132.892 487.337 132.892 487.337L176.312 434.706Z" fill="#01A792"/>
<path id="Vector_11" opacity="0.1" d="M176.312 434.706L205.259 491.284C205.259 491.284 198.68 518.915 188.154 521.547C177.628 524.178 132.892 487.337 132.892 487.337L176.312 434.706Z" fill="black"/>
<path id="Vector_12" d="M196.049 416.286C228.749 416.286 255.258 389.777 255.258 357.076C255.258 324.376 228.749 297.867 196.049 297.867C163.348 297.867 136.839 324.376 136.839 357.076C136.839 389.777 163.348 416.286 196.049 416.286Z" fill="#A0616A"/>
<path id="Vector_13" d="M192.102 409.707C192.102 409.707 172.365 443.917 168.418 462.337C164.471 480.758 109.208 425.496 109.208 425.496L101.972 406.417C101.972 406.417 153.944 382.076 149.997 362.339C146.05 342.603 192.102 409.707 192.102 409.707Z" fill="#A0616A"/>
<path id="Vector_14" d="M202.628 512.336L256.574 583.388L385.519 679.438C385.519 679.438 478.938 699.175 457.886 713.648C436.834 728.122 376.309 700.491 376.309 700.491C376.309 700.491 246.048 630.755 218.417 601.808C190.786 572.862 139.471 524.178 139.471 524.178L202.628 512.336Z" fill="#A0616A"/>
<path id="Vector_15" d="M130.261 622.861L146.05 647.86L240.281 618.214C260.957 611.71 283.629 614.103 301.968 625.657C318.415 636.018 328.941 652.465 305.257 676.807C257.89 725.49 226.312 699.175 226.312 699.175C226.312 699.175 67.104 774.173 40.7887 737.332C14.4734 700.491 13.1577 682.07 13.1577 682.07C13.1577 682.07 114.472 618.913 130.261 622.861Z" fill="#2F2E41"/>
<path id="Vector_16" d="M327.625 709.701C327.625 709.701 369.73 737.332 319.731 750.49C269.732 763.647 232.89 745.227 232.89 745.227C232.89 745.227 189.47 745.227 189.47 722.859C189.47 700.491 203.943 697.859 203.943 697.859L248.679 704.438C248.679 704.438 302.626 689.965 327.625 709.701Z" fill="#F2F2F2"/>
<path id="Vector_17" d="M244.621 342.182C248.651 343.978 252.647 346.105 257.029 346.626C261.41 347.148 266.399 345.618 268.472 341.723C269.592 339.619 269.72 337.145 269.772 334.762C269.931 327.537 269.408 319.726 264.83 314.135C261.916 310.576 257.662 308.333 254.646 304.861C252.485 302.373 251.047 299.358 249.498 296.449C243.632 285.432 234.947 274.844 222.876 271.668C217.836 270.341 212.548 270.406 207.337 270.48L176.94 270.909C172.02 270.978 167.026 271.059 162.317 272.482C152.533 275.441 145.409 283.668 138.884 291.537C134.003 297.423 129.109 303.371 125.446 310.083C120.194 319.879 117.538 330.857 117.732 341.97C117.691 344.82 118.059 347.662 118.824 350.408C119.72 352.926 120.829 355.363 122.141 357.692C127.841 368.889 131.226 382.874 124.806 393.674C135.958 389.119 146.992 383.146 154.348 373.607C157.639 369.339 160.22 364.343 164.606 361.212C168.992 358.08 176.138 357.809 178.952 362.405C179.919 364.264 180.417 366.331 180.403 368.427C180.608 371.877 180.602 375.46 182.065 378.591C183.528 381.722 187.012 384.248 190.339 383.311C196.067 381.698 195.519 372.906 199.931 368.911C203.282 365.878 208.452 366.458 212.757 365.081C217.773 363.477 221.536 359.132 223.681 354.322C225.311 350.666 225.287 341.099 228.371 339.119C232.239 336.636 241.036 340.583 244.621 342.182Z" fill="#2F2E41"/>
<path id="Vector_18" d="M97.2716 400.176C99.9352 399.465 102.74 399.472 105.4 400.197C113.846 402.464 132.78 408.467 136.839 417.601C142.103 429.443 160.523 447.864 160.523 447.864C160.523 447.864 185.523 472.863 180.26 489.968C174.997 507.073 155.26 526.81 155.26 526.81C155.26 526.81 160.523 608.387 134.208 629.439C107.893 650.492 97.3665 636.018 97.3665 655.755C97.3665 675.491 15.7892 737.332 0 699.175C0 699.175 7.89459 628.124 5.26306 603.124C2.66948 578.485 6.46634 424.759 97.2716 400.176Z" fill="#01A792"/>
<path id="Vector_19" d="M139.471 433.39C139.471 433.39 219.733 492.6 205.259 517.599C205.259 517.599 156.576 541.283 146.05 539.967C135.524 538.652 94.7351 492.6 84.2089 488.653C73.6828 484.705 68.4198 413.654 139.471 433.39Z" fill="#01A792"/>
</g>
</g>
<defs>
<clipPath id="clip0">
<rect width="645.31" height="755.228" fill="white"/>
</clipPath>
</defs>
</svg>
